<?xml version="1.0" encoding="utf-8"?>
<!-- Generator: Adobe Illustrator 19.2.1, SVG Export Plug-In . SVG Version: 6.00 Build 0)  -->
<svg version="1.1" id="Layer_1" xmlns="http://www.w3.org/2000/svg" xmlns:xlink="http://www.w3.org/1999/xlink" x="0px" y="0px"
	 viewBox="0 0 147.3370361 43.4561424" style="enable-background:new 0 0 147.3370361 43.4561424;" xml:space="preserve">
<style type="text/css">
	.st0{fill:#231F20;}
	.st1{fill:#EC1D24;}
</style>
<path class="st0" d="M71.7569885,40.3041382c0,1.670002,1.3500061,3.0200005,3.0180054,3.0200005
	s3.0220032-1.3499985,3.0220032-3.0200005V34.035141h5.0249939c6.3050232,0,11.2460022-4.8220024,11.2460022-10.9750023
	c0-3.0359993-1.0910034-5.8149986-3.0700073-7.8269987c-2.0889893-2.1199989-4.9599915-3.2409973-8.3089905-3.2409973h-7.9140015
	c-1.6679993,0-3.0180054,1.3529968-3.0180054,3.0219994 M88.0280151,23.0601387c0,3.1720009-2.303009,5.4730034-5.4750061,5.4730034
	h-4.756012V17.497139h4.5800171C86.5429993,17.497139,88.0280151,20.3701401,88.0280151,23.0601387"/>
<path class="st0" d="M103.1490479,40.3041382c0,1.670002,1.3529663,3.0209999,3.0209961,3.0209999
	c1.6679688,0,3.0189819-1.3509979,3.0189819-3.0209999V17.7641373h5.7359619c1.592041,0,2.8860474-1.2929993,2.8860474-2.8849974
	c0-1.5960007-1.2940063-2.887001-2.8860474-2.887001H97.4130249c-1.5929871,0-2.8859863,1.2910004-2.8859863,2.887001
	c0,1.5919981,1.2929993,2.8849974,2.8859863,2.8849974h5.7360229"/>
<path class="st1" d="M145.1360474,18.2351379c1.2949829-0.5639992,2.2009888-1.8549995,2.2009888-3.355998
	c0-1.5039978-0.9089966-2.7949982-2.2040405-3.3579979L119.007019,0.2491387
	c-1.5300293-0.6629944-3.309021,0.0429993-3.9680176,1.5750046c-0.6619873,1.532997,0.0440063,3.3099976,1.5750122,3.9690018
	l21.0460205,9.0859947l-21.0460205,9.0849981c-1.5310059,0.6599998-2.2369995,2.4370003-1.5750122,3.9690018
	c0.6589966,1.5289993,2.4379883,2.2350006,3.9680176,1.5750008"/>
<path class="st0" d="M32.9989929,14.7311411c0-1.6099968-1.1919861-2.7360001-2.894989-2.7360001h-2.355011
	c-0.2539978,0-0.5679932,0-0.8119812,0.2440033c-0.2440186,0.2439995-0.2440186,0.5579987-0.2440186,0.8129997v6.5769987
	c0,0.4099998,0.0140076,0.5489998,0.1180115,0.757c0.1350098,0.257,0.4249878,0.4139977,0.7569885,0.4139977
	c0.32901,0,0.6190186-0.1569977,0.756012-0.4139977c0.1040039-0.2080002,0.1149902-0.3470001,0.1149902-0.757v-2.163002h1.6650085
	C31.8070068,17.4661407,32.9989929,16.3431435,32.9989929,14.7311411 M31.2480164,14.7311411
	c0,0.7070007-0.5,1.182003-1.2440186,1.182003h-1.5650024v-2.3650017h1.5650024
	C30.7600098,13.5481424,31.2480164,14.0121431,31.2480164,14.7311411"/>
<path class="st0" d="M40.2800293,17.7451401v-4.631999c0-0.4079971-0.0150146-0.5489998-0.1170044-0.7539978
	c-0.1390076-0.257-0.4260254-0.413002-0.757019-0.413002c-0.3289795,0-0.618988,0.156002-0.7579956,0.413002
	c-0.1029968,0.204998-0.117981,0.3460007-0.117981,0.7539978v4.5689993c0,0.9820023-0.5650024,1.5900002-1.4770203,1.5900002
	c-0.9109802,0-1.4759827-0.6079979-1.4759827-1.5900002v-4.5689993c0-0.4079971-0.0160217-0.5489998-0.1180115-0.7539978
	c-0.1380005-0.257-0.428009-0.413002-0.7569885-0.413002c-0.32901,0-0.6190186,0.156002-0.757019,0.413002
	c-0.1040039,0.204998-0.118988,0.3460007-0.118988,0.7539978v4.631999c0,1.7830009,1.3569946,3.0790024,3.2269897,3.0790024
	C38.9220276,20.8241425,40.2800293,19.528141,40.2800293,17.7451401"/>
<path class="st0" d="M42.4880066,20.7511444h2.6269836c1.6650085,0,2.7000122-0.9680023,2.7000122-2.5279999
	c0-1.2010002-0.7309875-1.7420006-1.1900024-1.9600029c0.3869934-0.197998,1.0669861-0.7969961,1.0669861-1.8009977
	c0-0.7449989-0.2489929-1.368-0.7189941-1.7970009c-0.4759827-0.4379997-1.1699829-0.6699982-2.0059814-0.6699982h-2.4790039
	c-0.2539978,0-0.571991,0-0.8160095,0.2439995c-0.243988,0.2439995-0.243988,0.5579987-0.243988,0.8139992v6.6409979
	c0,0.2540016,0,0.5690002,0.243988,0.8129997C41.9160156,20.7511444,42.2340088,20.7511444,42.4880066,20.7511444
	 M43.1790161,19.198143v-2.1080017h1.7639771c0.8300171,0,1.1210022,0.5390015,1.1210022,1.0460014
	c0,0.5130005-0.2909851,1.0620003-1.1210022,1.0620003H43.1790161z M43.1790161,15.521142v-1.9729996h1.6529846
	c0.6870117,0,1.1119995,0.3770027,1.1119995,0.9870033c0,0.6089973-0.4249878,0.9859962-1.1119995,0.9859962H43.1790161z"/>
<path class="st0" d="M49.8380127,20.7511406h3.6419983c0.3699951,0,0.5099792-0.0139999,0.6769714-0.0979996
	c0.2270203-0.1209984,0.3710022-0.3799973,0.3710022-0.678997c0-0.3000031-0.1439819-0.5590019-0.3710022-0.6780014
	c-0.1669922-0.0839996-0.3069763-0.098999-0.6769714-0.098999h-2.9500122v-6.0839987
	c0-0.4080009-0.0169983-0.5460014-0.118988-0.7530022c-0.1380005-0.257-0.428009-0.4150009-0.756012-0.4150009
	c-0.3299866,0-0.6199951,0.1580009-0.7569885,0.4150009c-0.105011,0.2050018-0.1190186,0.3450012-0.1190186,0.7530022v6.5799971
	c0,0.2540016,0,0.5709991,0.2420044,0.8150024C49.2669983,20.7511406,49.5839844,20.7511406,49.8380127,20.7511406"/>
<path class="st0" d="M56.4390259,20.8001404c0.3309937,0,0.6209717-0.1569977,0.7589722-0.4139977
	c0.1010132-0.2070007,0.1160278-0.3470001,0.1160278-0.7560005v-6.5159979c0-0.4090004-0.0150146-0.5460014-0.1160278-0.7540016
	c-0.1380005-0.257-0.4279785-0.4140015-0.7589722-0.4140015c-0.32901,0-0.6190186,0.1570015-0.757019,0.4140015
	c-0.1029968,0.2050018-0.117981,0.3450012-0.117981,0.7540016v6.5159979c0,0.4090004,0.0149841,0.5489998,0.1209717,0.7560005
	C55.8200073,20.6431427,56.1100159,20.8001404,56.4390259,20.8001404"/>
<path class="st0" d="M61.5370178,20.8241386c1.0069885,0,1.6789856-0.2359962,2.2449951-0.7899971
	c0.5559998-0.5300026,0.7539978-1.1480026,0.7539978-1.5180016c0-0.2989998-0.0690002-0.4980011-0.2310181-0.6629982
	c-0.1579895-0.1570015-0.3609924-0.2369995-0.6080017-0.2369995c-0.1879883,0-0.3819885,0.0589981-0.5,0.1519966
	c-0.1549988,0.1210022-0.289978,0.3150024-0.4279785,0.6130028c-0.2720032,0.6089973-0.6759949,0.8909988-1.2709961,0.8909988
	c-0.4060059,0-0.75-0.1559982-1.0200195-0.4609985c-0.3500061-0.401001-0.4249878-0.8360023-0.4249878-2.439003
	c0-1.6029959,0.0749817-2.0349989,0.4219971-2.4379988c0.2730103-0.3050003,0.6170044-0.4609985,1.0230103-0.4609985
	c0.5950012,0,0.9989929,0.2840004,1.2709961,0.8929977c0.1380005,0.2970009,0.2729797,0.4900017,0.4279785,0.6100006
	c0.1180115,0.0950012,0.3120117,0.1529999,0.5,0.1529999c0.2470093,0,0.4500122-0.0789986,0.6080017-0.2389984
	c0.1620178-0.163002,0.2310181-0.3600006,0.2310181-0.6619987c0-0.368-0.197998-0.9860001-0.7539978-1.5180016
	c-0.5660095-0.5540009-1.2380066-0.7869987-2.2449951-0.7869987c-0.9430237,0-1.7280273,0.3079987-2.335022,0.9219971
	c-0.8589783,0.8590012-0.8999939,1.7980003-0.8999939,3.5269995c0,1.7280006,0.0410156,2.6680031,0.8999939,3.5279999
	C59.8089905,20.5131416,60.5939941,20.8241386,61.5370178,20.8241386"/>
<path class="st0" d="M6.0210266,23.4271393c-0.1640015-0.086998-0.3070068-0.1019974-0.6740112-0.1019974H1.0460205
	c-0.3670044,0-0.5090027,0.0149994-0.6750183,0.1019974C0.1419983,23.5461426,0,23.8051414,0,24.1051407
	s0.1419983,0.5600014,0.3710022,0.6759987c0.1660156,0.0870018,0.3080139,0.0980034,0.6750183,0.0980034h1.276001v6.0849991
	c0,0.4080009,0.0149841,0.5489998,0.118988,0.757c0.1360168,0.2529984,0.4259949,0.4099998,0.7550049,0.4099998
	c0.3309937,0,0.618988-0.1570015,0.7569885-0.4099998c0.1040039-0.2100029,0.1180115-0.348999,0.1180115-0.757v-6.0849991h1.276001
	c0.3670044,0,0.5079956-0.0110016,0.6740112-0.0980034c0.2309875-0.1159973,0.3699951-0.3759995,0.3699951-0.6759987
	S6.2520142,23.5461426,6.0210266,23.4271393"/>
<path class="st0" d="M13.4770203,26.0091438c0-1.5779991-1.1720276-2.6830025-2.8510132-2.6830025H8.2430115
	c-0.2539978,0-0.5700073,0-0.8139954,0.2440033c-0.2460022,0.2439995-0.2460022,0.560997-0.2460022,0.8169975v6.5769997
	c0,0.4080009,0.0149841,0.5489998,0.1199951,0.757c0.1369934,0.2530022,0.427002,0.4099998,0.7569885,0.4099998
	c0.32901,0,0.6180115-0.1569977,0.7550049-0.4099998c0.1040039-0.2099991,0.118988-0.348999,0.118988-0.757v-2.3509979h1.1670227
	l1.6130066,2.8149986c0.21698,0.3769989,0.4029846,0.7029991,0.8729858,0.7029991
	c0.1489868,0,0.3039856-0.0459976,0.4609985-0.1359978c0.2749939-0.1539993,0.4440002-0.4379997,0.4290161-0.7260017
	c-0.0110168-0.2099991-0.0870056-0.3579979-0.2750244-0.6949997l-1.2949829-2.2539978
	C12.8909912,27.9161415,13.4770203,27.054142,13.4770203,26.0091438 M11.7400208,26.0141411
	c0,0.677002-0.4830017,1.1280022-1.2060242,1.1280022H8.9339905v-2.2630005h1.6000061
	C11.2659912,24.8791428,11.7400208,25.3251419,11.7400208,26.0141411"/>
<path class="st0" d="M18.8680115,24.0721436c-0.117981-0.3040009-0.2099915-0.4560013-0.3549805-0.5810013
	c-0.1670227-0.1469994-0.3529968-0.2130013-0.6240234-0.2130013c-0.2709961,0-0.4539795,0.0660019-0.6229858,0.2130013
	c-0.1419983,0.125-0.2369995,0.2770004-0.3529968,0.5810013l-2.5180054,6.6769981
	c-0.1719971,0.4570007-0.2590027,0.7830009,0.0450134,1.1140022c0.1599731,0.1719971,0.3869934,0.2679977,0.625,0.2679977
	c0.1889954,0,0.348999-0.0519981,0.4849854-0.1619987c0.1520081-0.1280022,0.2210083-0.2680016,0.3670044-0.6500015
	l0.2829895-0.7770004h3.381012l0.2829895,0.7770004c0.1430054,0.382,0.2120056,0.5219994,0.3670044,0.6500015
	c0.1359863,0.1100006,0.2929993,0.1619987,0.4840088,0.1619987c0.2369995,0,0.4649963-0.0960007,0.6239929-0.2679977
	c0.3059998-0.3310013,0.2170105-0.6570015,0.04599-1.1140022 M19.0350342,29.0711403h-2.2910156l1.144989-3.0979996
	L19.0350342,29.0711403z"/>
<path class="st0" d="M28.1810303,23.278141c-0.3310242,0-0.6210022,0.1590004-0.756012,0.413002
	c-0.1029968,0.2070007-0.1180115,0.3479996-0.1180115,0.7560005v4.1549988L24.23703,24.0701447
	c-0.3660278-0.5360031-0.6100159-0.7920036-1.0190125-0.7920036c-0.256012,0-0.473999,0.0920029-0.6560059,0.2710037
	c-0.1959839,0.2029991-0.2369995,0.4699974-0.2369995,0.810997v6.6040001c0,0.4080009,0.0140076,0.5480003,0.1210022,0.7560005
	c0.1350098,0.2540016,0.4249878,0.4109993,0.7539978,0.4109993c0.3280029,0,0.6210022-0.1569977,0.7569885-0.4109993
	c0.1030273-0.2099991,0.1180115-0.3479996,0.1180115-0.7560005v-4.1579971l3.0750122,4.5339966
	c0.348999,0.526001,0.6029968,0.7910004,1.0109863,0.7910004c0.2590027,0,0.4750061-0.0859985,0.6560059-0.2679977
	c0.197998-0.1980019,0.2369995-0.4589996,0.2369995-0.8150024v-6.6009979c0-0.4080009-0.0150146-0.5489998-0.1180115-0.7560005
	C28.7980042,23.4371414,28.507019,23.278141,28.1810303,23.278141"/>
<path class="st0" d="M33.8900146,26.9541397l-1.0230103-0.1479988C32.5,26.7511406,32.2720032,26.6541405,32.0690002,26.4721413
	c-0.1669922-0.1539993-0.243988-0.3619995-0.243988-0.6539993c0-0.4760017,0.3450012-1.0349998,1.3239746-1.0349998
	c0.5120239,0,0.90802,0.0999985,1.3670044,0.3419991c0.256012,0.1300011,0.4710083,0.1980019,0.6440125,0.1980019
	c0.2109985,0,0.3850098-0.0800018,0.5230103-0.2400017c0.1259766-0.1539993,0.2009888-0.3580017,0.2009888-0.5359993
	c0-0.3440018-0.2590027-0.6599998-0.7090149-0.868c-0.6489868-0.302002-1.2249756-0.4249992-1.9779968-0.4249992
	c-0.9179993,0-1.6919861,0.2589989-2.2389832,0.7459984c-0.5339966,0.4760017-0.8170166,1.1409988-0.8170166,1.9169998
	c0,0.7470016,0.2059937,1.3100014,0.6289978,1.7210007c0.401001,0.3889999,0.9430237,0.6209984,1.7010193,0.7319984
	l1.039978,0.1550026c0.3940125,0.0579987,0.6180115,0.1450005,0.7750244,0.2949982
	c0.1689758,0.1640015,0.2590027,0.4109993,0.2590027,0.7180023c0,0.6940002-0.5440063,1.0769997-1.5320129,1.0769997
	c-0.6700134,0-1.0629883-0.144001-1.6459961-0.4510002c-0.3349915-0.1790009-0.507019-0.2340012-0.7010193-0.2340012
	c-0.2009888,0-0.3579712,0.0629997-0.4909973,0.1959991c-0.1419983,0.1420021-0.2359924,0.3700027-0.2359924,0.5670013
	c0,0.5,0.3210144,0.7519989,0.8800049,1.0159988c0.6960144,0.3310013,1.2640076,0.4470024,2.1749878,0.4470024
	c0.9170227,0,1.7390137-0.2440033,2.3170166-0.6940002c0.6139832-0.4770012,0.9400024-1.1570015,0.9400024-1.9680023
	c0-0.8099976-0.2290039-1.4349976-0.6790161-1.855999C35.1950073,27.2801399,34.6749878,27.0671425,33.8900146,26.9541397"/>
<path class="st0" d="M40.730011,23.3261414h-2.3519897c-0.2539978,0-0.5700073,0-0.8139954,0.2439995
	c-0.2450256,0.2439995-0.2450256,0.5600014-0.2450256,0.8160019v6.5769997c0,0.4090004,0.0140076,0.5489998,0.1190186,0.757
	c0.1369934,0.2539978,0.4249878,0.4109993,0.7559814,0.4109993c0.32901,0,0.6200256-0.1570015,0.757019-0.4109993
	c0.1040039-0.2099991,0.1170044-0.3479996,0.1170044-0.757v-2.163002h1.6619873c1.70401,0,2.8959961-1.1259995,2.8959961-2.7350006
	C43.6260071,24.4521408,42.434021,23.3261414,40.730011,23.3261414 M41.8750305,26.0651398
	c0,0.7050018-0.4990234,1.182003-1.2440186,1.182003h-1.5629883v-2.368h1.5629883
	C41.3880005,24.8791428,41.8750305,25.3441429,41.8750305,26.0651398"/>
<path class="st0" d="M47.4850159,23.2531395c-0.9689941,0-1.7340088,0.3050003-2.3519897,0.9239998
	c-0.8590088,0.8600006-0.8980103,1.8010025-0.8980103,3.5279999c0,1.7290001,0.0390015,2.6690025,0.8980103,3.5279999
	c0.617981,0.6230011,1.3829956,0.9230003,2.3519897,0.9230003c0.9679871,0,1.7390137-0.2999992,2.3529968-0.9230003
	c0.8580017-0.8589973,0.8990173-1.7989998,0.8990173-3.5279999c0-1.7269974-0.0410156-2.6679993-0.8990173-3.5279999
	C49.2240295,23.5581398,48.4530029,23.2531395,47.4850159,23.2531395 M48.5690308,30.1371384
	c-0.2640076,0.295002-0.65802,0.4670029-1.0840149,0.4670029c-0.4240112,0-0.8200073-0.1720009-1.0820007-0.4670029
	c-0.3139954-0.3549995-0.4179993-0.7559967-0.4179993-2.4319992c0-1.6809998,0.1040039-2.0830002,0.4179993-2.4379997
	c0.2539978-0.2929993,0.6489868-0.4599991,1.0820007-0.4599991c0.4360046,0,0.8299866,0.1669998,1.0840149,0.4599991
	c0.3149719,0.3549995,0.4179993,0.757,0.4179993,2.4379997C48.98703,29.3811417,48.8840027,29.7821388,48.5690308,30.1371384"/>
<path class="st0" d="M57.9840088,26.0091438c0-1.5779991-1.1730042-2.6830025-2.8519897-2.6830025h-2.3860168
	c-0.2539978,0-0.5679932,0-0.8119812,0.2440033c-0.2440186,0.2439995-0.2440186,0.560997-0.2440186,0.8169975v6.5769997
	c0,0.4080009,0.0130005,0.5489998,0.1180115,0.757c0.1350098,0.2530022,0.4249878,0.4099998,0.7539978,0.4099998
	c0.3309937,0,0.6220093-0.1569977,0.7590027-0.4099998c0.1040039-0.2099991,0.1159973-0.348999,0.1159973-0.757v-2.3509979
	h1.1679993l1.6109924,2.8149986c0.2180176,0.3769989,0.4060059,0.7029991,0.8730164,0.7029991
	c0.1519775,0,0.3069763-0.0459976,0.4620056-0.1359978c0.2759705-0.1539993,0.4449768-0.4379997,0.4329834-0.7260017
	c-0.0140076-0.2099991-0.0880127-0.3579979-0.2779846-0.6949997l-1.2960205-2.2539978
	C57.3959961,27.9161415,57.9840088,27.054142,57.9840088,26.0091438 M56.2450256,26.0141411
	c0,0.677002-0.4850159,1.1280022-1.2080078,1.1280022h-1.6000061v-2.2630005h1.6000061
	C55.7720032,24.8791428,56.2450256,25.3251419,56.2450256,26.0141411"/>
<path class="st0" d="M64.2950134,23.4271393c-0.1670227-0.086998-0.3080139-0.1019974-0.677002-0.1019974h-4.3000183
	c-0.367981,0-0.5079956,0.0149994-0.6739807,0.1019974c-0.2310181,0.1190033-0.3730164,0.3780022-0.3730164,0.6780014
	s0.1419983,0.5600014,0.3730164,0.6759987c0.1659851,0.0870018,0.3059998,0.0980034,0.6739807,0.0980034h1.276001v6.0849991
	c0,0.4080009,0.0140076,0.5489998,0.1180115,0.757c0.1380005,0.2529984,0.4279785,0.4099998,0.7569885,0.4099998
	s0.6180115-0.1570015,0.756012-0.4099998c0.1040039-0.2100029,0.118988-0.348999,0.118988-0.757v-6.0849991h1.2740173
	c0.368988,0,0.5099792-0.0110016,0.677002-0.0980034c0.2269897-0.1159973,0.368988-0.3759995,0.368988-0.6759987
	S64.5220032,23.5461426,64.2950134,23.4271393"/>
<path class="st0" d="M22.3100281,42.7571411c-0.0840149,0.257-0.1640015,0.4080009-0.2680054,0.5019989
	c-0.1350098,0.1300011-0.2709961,0.170002-0.4550171,0.170002c-0.1829834,0-0.3190002-0.0400009-0.4519958-0.170002
	c-0.1029968-0.093998-0.1829834-0.2449989-0.269989-0.5019989l-2.3640137-7.105999
	c-0.09198-0.281002-0.1119995-0.4040031-0.0870056-0.5559998c0.0550232-0.3440018,0.3980103-0.4830017,0.6380005-0.4830017
	c0.1640015,0,0.2709961,0.0470009,0.3720093,0.1389999c0.118988,0.1049995,0.1790161,0.2280006,0.2709961,0.5009995
	l1.8919983,5.8190002L23.480011,35.25214c0.0920105-0.2729988,0.1520081-0.3959999,0.269989-0.5009995
	c0.105011-0.0919991,0.2080078-0.1389999,0.3740234-0.1389999c0.2389832,0,0.5809937,0.1389999,0.6369934,0.4830017
	c0.0249939,0.1519966,0.0050049,0.2749977-0.0870056,0.5559998"/>
<path class="st0" d="M26.8980103,43.1301422c-0.0970154,0.1790009-0.3000183,0.2999992-0.5630188,0.2999992
	c-0.2640076,0-0.4639893-0.1209984-0.5639954-0.2999992c-0.0920105-0.1720009-0.098999-0.276001-0.098999-0.5999985v-7.019001
	c0-0.3240013,0.0069885-0.4290009,0.098999-0.6000023c0.1000061-0.1759987,0.2999878-0.2989998,0.5639954-0.2989998
	c0.2630005,0,0.4660034,0.1230011,0.5630188,0.2989998c0.09198,0.1710014,0.0999756,0.276001,0.0999756,0.6000023v7.019001
	C26.9979858,42.8541412,26.9899902,42.9581413,26.8980103,43.1301422"/>
<path class="st0" d="M28.8900146,35.4751396c0.5629883-0.5639992,1.2969971-0.8879967,2.2469788-0.8879967
	c1.0979919,0,1.7530212,0.3309975,2.2839966,0.8999977c0.4909973,0.5270004,0.6670227,1.0890007,0.6670227,1.401001
	c0,0.2280006-0.0550232,0.375-0.1760254,0.4959984c-0.1279907,0.1230011-0.2749939,0.1840019-0.4589844,0.1840019
	c-0.1660156,0-0.2990112-0.0540009-0.3940125-0.1280022c-0.1409912-0.1099968-0.2250061-0.2689972-0.3240051-0.4959984
	c-0.3169861-0.7470016-0.8019714-1.1819992-1.6209717-1.1819992c-0.5160217,0-0.9390259,0.2010002-1.2580261,0.5459976
	c-0.4579773,0.4950027-0.5189819,1.0540009-0.5189819,2.7120018c0,1.6609993,0.0610046,2.2169991,0.5189819,2.711998
	c0.3190002,0.3440018,0.7420044,0.5470009,1.2580261,0.5470009c0.8190002,0,1.3039856-0.4360008,1.6209717-1.1829987
	c0.098999-0.2280006,0.1830139-0.3860016,0.3240051-0.4939995c0.0950012-0.0750008,0.2279968-0.1310005,0.3940125-0.1310005
	c0.1839905,0,0.3309937,0.0629997,0.4589844,0.1839981c0.1210022,0.1220016,0.1760254,0.269001,0.1760254,0.4970016
	c0,0.3120003-0.1760254,0.8759995-0.6670227,1.4020004c-0.5309753,0.5699997-1.1860046,0.901001-2.2839966,0.901001
	c-0.9499817,0-1.6839905-0.3260002-2.2469788-0.8880005c-0.8470154-0.8470001-0.8780212-1.7150002-0.8780212-3.5470009
	C28.0119934,37.191143,28.0429993,36.3181419,28.8900146,35.4751396"/>
<path class="st0" d="M40.3480225,35.7501411c-0.1330261,0.0720024-0.256012,0.0870018-0.5390015,0.0870018h-1.6410217v6.6930008
	c0,0.322998-0.0039978,0.4279976-0.0959778,0.5999985c-0.1000061,0.1790009-0.303009,0.2999992-0.5670166,0.2999992
	c-0.2630005,0-0.4639893-0.1209984-0.5629883-0.2999992c-0.0920105-0.1720009-0.0970154-0.2770004-0.0970154-0.5999985v-6.6930008
	H35.20401c-0.2829895,0-0.4060059-0.0149994-0.5410156-0.0870018c-0.1599731-0.0919991-0.2689819-0.2689972-0.2689819-0.5029984
	c0-0.2319984,0.1090088-0.4109993,0.2689819-0.5029984c0.1350098-0.0730019,0.2580261-0.0850029,0.5410156-0.0850029h4.605011
	c0.2829895,0,0.4059753,0.012001,0.5390015,0.0850029c0.1599731,0.0919991,0.2709961,0.2709999,0.2709961,0.5029984
	C40.6190186,35.481144,40.5079956,35.6581421,40.3480225,35.7501411"/>
<path class="st0" d="M40.6830139,39.0201416c0-1.8289986,0.0329895-2.7019997,0.8779907-3.5459976
	c0.5670166-0.5620003,1.2980042-0.8860016,2.2610168-0.8860016c0.9549866,0,1.6879883,0.3240013,2.2549744,0.8860016
	c0.8440247,0.843998,0.8829956,1.7169991,0.8829956,3.5459976c0,1.8320007-0.0389709,2.7000008-0.8829956,3.5460014
	c-0.5669861,0.5639992-1.2999878,0.8899994-2.2549744,0.8899994c-0.9630127,0-1.6940002-0.3260002-2.2610168-0.8899994
	C40.7160034,41.7201424,40.6830139,40.8521423,40.6830139,39.0201416 M43.8220215,42.2791405
	c0.5259705,0,0.973999-0.2079964,1.2969971-0.5519981c0.4309998-0.4589996,0.5159912-0.980999,0.5159912-2.7070007
	c0-1.7270012-0.0849915-2.2550011-0.5159912-2.711998c-0.322998-0.3450012-0.7710266-0.5470009-1.2969971-0.5470009
	c-0.5320129,0-0.9790039,0.2019997-1.2990112,0.5470009c-0.4339905,0.4569969-0.5140076,0.9849968-0.5140076,2.711998
	c0,1.7260017,0.0800171,2.2480011,0.5140076,2.7070007C42.8430176,42.0711441,43.2900085,42.2791405,43.8220215,42.2791405"/>
<path class="st0" d="M47.9379883,42.5301399v-7.0629997c0-0.1959991,0-0.4279976,0.1880188-0.6159973
	c0.190979-0.1920013,0.4249878-0.1920013,0.618988-0.1920013h2.5750122c1.6519775,0,2.7070007,1.0670013,2.7070007,2.5480003
	c0,1.243-0.7550049,2.0400009-1.7280273,2.3159981l1.5610046,2.723999c0.1549988,0.2710037,0.2030029,0.3800011,0.210022,0.5460014
	c0.0049744,0.2159996-0.098999,0.4109993-0.3270264,0.545002c-0.1079712,0.0669975-0.2389832,0.0919991-0.3549805,0.0919991
	c-0.3309937,0-0.4840088-0.2330017-0.6539917-0.5369987l-1.8210144-3.1870003h-1.6529846v2.8239975
	c0,0.3230019-0.0050049,0.4280014-0.0970154,0.6000023c-0.098999,0.178997-0.302002,0.2999992-0.5629883,0.2999992
	c-0.2640076,0-0.4670105-0.1210022-0.5650024-0.2999992C47.9429932,42.9581413,47.9379883,42.8531418,47.9379883,42.5301399
	 M49.2600098,35.8371391v2.743h1.9599915c0.8829956,0,1.4819946-0.5029984,1.4819946-1.3579979
	c0-0.8660011-0.598999-1.3850021-1.4819946-1.3850021H49.2600098z"/>
<path class="st0" d="M56.507019,43.1301422c-0.0970154,0.1790009-0.3000183,0.2999992-0.5630188,0.2999992
	c-0.2640076,0-0.4670105-0.1209984-0.5639954-0.2999992c-0.0920105-0.1720009-0.0970154-0.276001-0.0970154-0.5999985v-7.019001
	c0-0.3240013,0.0050049-0.4290009,0.0970154-0.6000023c0.0969849-0.1759987,0.2999878-0.2989998,0.5639954-0.2989998
	c0.2630005,0,0.4660034,0.1230011,0.5630188,0.2989998c0.09198,0.1710014,0.0969849,0.276001,0.0969849,0.6000023v7.019001
	C56.6040039,42.8541412,56.598999,42.9581413,56.507019,43.1301422"/>
<path class="st0" d="M59.3310242,41.6281433l-0.4330139,1.1720009c-0.1119995,0.2929993-0.1669922,0.4039993-0.2909851,0.5
	c-0.0970154,0.079998-0.2170105,0.1289978-0.3600159,0.1289978c-0.1839905,0-0.367981-0.072998-0.4839783-0.1959991
	c-0.2510071-0.2560005-0.1720276-0.5320015-0.0430298-0.875l2.6710205-7.1100006
	c0.09198-0.2490005,0.1589966-0.355999,0.2640076-0.4519997c0.1279907-0.1240005,0.2749939-0.1839981,0.4830017-0.1839981
	c0.2079773,0,0.3549805,0.0599976,0.4819946,0.1839981c0.1049805,0.0960007,0.1719971,0.2029991,0.2639771,0.4519997
	l2.6710205,7.1100006c0.1289978,0.3429985,0.2080078,0.6189995-0.0429993,0.875
	c-0.1159973,0.1230011-0.3000183,0.1959991-0.4840088,0.1959991c-0.1430054,0-0.2619934-0.0489998-0.3590088-0.1289978
	c-0.1239929-0.0960007-0.1789856-0.2070007-0.2909851-0.5l-0.4339905-1.1720009 M61.138031,36.6881409l-1.3970032,3.814003H62.53302
	L61.138031,36.6881409z"/>
</svg>
